<svg width="16" height="16" viewBox="0 0 16 16" fill="none" xmlns="http://www.w3.org/2000/svg">
<g id="figma">
<path id="Vector" fill-rule="evenodd" clip-rule="evenodd" d="M3.59817 3.07692C3.59817 2.06901 4.43552 1.23077 5.49164 1.23077H7.3848V4.92307H5.49164C4.43552 4.92307 3.59817 4.08483 3.59817 3.07692ZM5.49164 0H7.3848H8.6158H10.509C12.2227 0 13.6333 1.3673 13.6333 3.07692C13.6333 4.08771 13.1402 4.97885 12.3829 5.53845C13.1402 6.09809 13.6333 6.9892 13.6333 8C13.6333 9.7096 12.2227 11.0769 10.509 11.0769C9.7998 11.0769 9.14247 10.8427 8.6156 10.447V11.0769V12.9231C8.6156 14.6327 7.20507 16 5.49142 16C3.77775 16 2.36719 14.6327 2.36719 12.9231C2.36719 11.9123 2.86026 11.0211 3.61753 10.4615C2.86026 9.90193 2.36719 9.0108 2.36719 8C2.36719 6.98913 2.86031 6.098 3.61763 5.5384C2.86043 4.97875 2.36741 4.08766 2.36741 3.07692C2.36741 1.3673 3.77797 0 5.49164 0ZM7.38487 7.98593C7.38487 7.9906 7.3848 7.99527 7.3848 8C7.3848 8.00467 7.38487 8.0094 7.38487 8.01407V9.84613H5.49142C4.4353 9.84613 3.59795 9.00793 3.59795 8C3.59795 6.99207 4.4353 6.15387 5.49142 6.15387H7.38487V7.98593ZM8.6156 8.01073C8.62153 9.01387 9.45673 9.84613 10.509 9.84613C11.5651 9.84613 12.4025 9.00793 12.4025 8C12.4025 6.99207 11.5651 6.15387 10.509 6.15387C9.45673 6.15387 8.62153 6.98613 8.6156 7.98927V8.01073ZM10.509 1.23077H8.6158V4.92307H10.509C11.5651 4.92307 12.4025 4.08483 12.4025 3.07692C12.4025 2.06901 11.5651 1.23077 10.509 1.23077ZM5.49142 11.0769C4.4353 11.0769 3.59795 11.9151 3.59795 12.9231C3.59795 13.931 4.4353 14.7693 5.49142 14.7693C6.54751 14.7693 7.38487 13.931 7.38487 12.9231V11.0769H5.49142Z" fill="#0A0A0D"/>
</g>
</svg>
