<svg width="16" height="16" viewBox="0 0 16 16" fill="none" xmlns="http://www.w3.org/2000/svg">
<g id="twitter" clip-path="url(#clip0_19_96)">
<path id="Vector" fill-rule="evenodd" clip-rule="evenodd" d="M9.70707 1.58683C10.4049 1.30533 11.1695 1.25675 11.8956 1.44878C12.4815 1.60372 13.0159 1.90819 13.4544 2.32885C14.0099 2.11502 14.5375 1.82375 15.023 1.46173C15.2286 1.30846 15.508 1.29974 15.7227 1.43992C15.9375 1.58008 16.0419 1.83935 15.9843 2.08924C15.7555 3.0827 15.2922 4.00045 14.6365 4.75714C14.6495 4.88584 14.6562 5.0152 14.6566 5.14472V5.14664C14.6566 9.42588 12.7102 12.5707 9.89507 14.1543C7.0898 15.7325 3.49906 15.7155 0.301907 13.8381C0.0598547 13.696 -0.0543381 13.4073 0.0249812 13.1381C0.104301 12.8688 0.356757 12.6881 0.637205 12.6999C1.83532 12.7503 3.0227 12.4823 4.09311 11.9253C3.00499 11.25 2.23694 10.4383 1.71374 9.56521C1.05135 8.45974 0.801507 7.28981 0.756267 6.2378C0.7111 5.18758 0.868973 4.24024 1.0356 3.55926C1.11924 3.21742 1.20598 2.9391 1.27269 2.74407C1.30905 2.6378 1.34739 2.53216 1.38985 2.42816L1.39066 2.42622C1.47699 2.2201 1.67481 2.07416 1.89737 2.05312C2.12169 2.03193 2.33948 2.13582 2.46417 2.32348C3.08816 3.2626 3.91977 4.02044 4.88245 4.53258C5.6667 4.9498 6.51909 5.194 7.38853 5.25422C7.38853 4.45623 7.56973 3.68583 8.00473 3.00851C8.41707 2.36649 9.0098 1.86812 9.70707 1.58683ZM2.19627 3.96432C2.05917 4.55788 1.94165 5.33873 1.97806 6.18526C2.01678 7.08554 2.22872 8.04541 2.76275 8.93661C3.29372 9.82274 4.1632 10.6751 5.57327 11.3375C5.76958 11.4297 5.90235 11.6191 5.92219 11.8351C5.94203 12.051 5.84596 12.2613 5.66973 12.3878C4.83037 12.99 3.89931 13.4241 2.92317 13.6753C5.1721 14.3771 7.44867 14.1275 9.29547 13.0885C11.6856 11.7439 13.4333 9.03214 13.4337 5.14774C13.4331 4.98604 13.4184 4.82483 13.3897 4.66621C13.3548 4.47337 13.4145 4.2755 13.5502 4.13408C13.7748 3.89994 13.9754 3.64258 14.1493 3.36645C13.9253 3.46202 13.697 3.54693 13.4649 3.6208C13.2266 3.69664 12.9661 3.61975 12.8073 3.42666C12.4816 3.03091 12.0532 2.75543 11.5829 2.63106C11.1131 2.5068 10.6187 2.53778 10.1646 2.72094C9.71007 2.90432 9.3138 3.23328 9.03367 3.66939C8.7534 4.10585 8.60467 4.62634 8.6114 5.16018L8.61153 5.16793L8.61147 5.87786C8.61147 6.20904 8.3478 6.48002 8.01673 6.4891C6.72927 6.52438 5.45508 6.22243 4.30808 5.61223C3.51658 5.19116 2.80333 4.63274 2.19627 3.96432Z" fill="#0A0A0D"/>
</g>
<defs>
<clipPath id="clip0_19_96">
<rect width="16" height="16" fill="white"/>
</clipPath>
</defs>
</svg>
